<!--?xml version="1.0" standalone="no"?-->
<svg id="sw-js-blob-svg" viewBox="0 0 100 100" xmlns="http://www.w3.org/2000/svg">
    <defs>
        <linearGradient id="sw-gradient" x1="0" x2="1" y1="1" y2="0">
            <stop id="stop1" stop-color="rgba(248, 117, 55, 1)" offset="0%"></stop>
            <stop id="stop2" stop-color="rgba(251, 168, 31, 1)" offset="100%"></stop>
        </linearGradient>
    </defs>
    <path fill="url(#sw-gradient)"
          d="M21.3,-35C25.8,-30.2,26.5,-21.3,29.2,-13.8C31.8,-6.3,36.4,-0.2,37.9,7C39.3,14.3,37.6,22.7,32.5,27.9C27.5,33.1,19.2,35.1,11.8,34.8C4.4,34.6,-2.1,32,-8,29.4C-13.9,26.7,-19.1,23.9,-24,19.9C-28.8,15.8,-33.4,10.7,-36.1,4.1C-38.7,-2.5,-39.5,-10.5,-36.2,-16C-32.9,-21.6,-25.4,-24.8,-18.7,-28.6C-12,-32.4,-6,-36.8,1.2,-38.7C8.4,-40.6,16.8,-39.9,21.3,-35Z"
          width="100%" height="100%" transform="translate(50 50)" stroke-width="0"
          style="transition: all 0.3s ease 0s;"></path>
</svg>